<svg width="512" height="512" viewBox="0 0 512 512" fill="none" xmlns="http://www.w3.org/2000/svg">
<rect width="512" height="512" fill="#70143B"/>
<path d="M362.866 268.976C360.653 262.576 357.053 256.654 354.131 250.62C354.131 250.62 361.65 208.8 326.771 197.079C326.771 197.079 318.125 172.583 295.137 171.036C272.74 168.886 254.085 171.703 235.719 186.009C217.5 171.898 200.285 165.917 174.577 171.047C153.549 176.403 150.816 196.188 150.816 196.188C150.816 196.188 112.561 208.25 119.985 250.419C112.779 259.659 108.89 269.307 107.19 279.816C105.001 293.367 106.813 305.99 116.574 316.482C118.038 318.053 118.327 319.411 117.819 321.477C114.91 333.398 116.627 344.415 124.477 354.222C125.645 355.681 126.53 357.606 126.873 359.436C129.21 371.853 140.883 383.354 153.46 385.185C156.771 385.669 158.919 386.743 160.495 390.12C168.014 406.192 186.303 416.477 202.622 414.877C204.953 414.647 207.721 415.344 209.78 416.513C217.913 421.118 226.742 423.385 235.86 423.657C244.689 423.923 253.282 421.644 261.025 417.174C264.419 415.214 267.706 414.24 271.637 414.783C274.145 415.131 276.818 415.001 279.321 414.547C294.695 411.748 306.233 403.694 312.819 389.253C313.893 386.897 315.345 385.869 317.835 385.202C332.472 381.311 342.824 372.969 345.916 357.322C346.14 356.183 347.055 355.114 347.834 354.163C354.409 346.193 357.755 337.153 355.695 326.874C354.556 321.176 354.444 316.27 359.248 312.225C359.933 311.652 360.299 310.684 360.759 309.875C368.372 296.602 367.634 282.751 362.866 268.964V268.976ZM132.137 288.437C127.675 288.437 124.058 284.817 124.058 280.354C124.058 275.89 127.675 272.271 132.137 272.271C136.599 272.271 140.217 275.89 140.217 280.354C140.217 284.817 136.599 288.437 132.137 288.437ZM183.287 331.166C180.632 343.772 172.871 353.165 162.909 355.214C154.251 356.991 145.268 350.851 140.228 339.745C135.737 330.003 135.2 319.588 138.712 308.736C141.527 300.045 145.965 291.69 157.196 289.7C168.822 287.64 174.636 294.742 178.967 302.129C184.043 310.79 185.512 320.597 183.287 331.166ZM272.941 356.537C250.992 392.14 196.555 358.214 218.019 322.316C223.844 312.579 232.532 304.544 242.588 300.753C262.701 293.172 280.436 307.029 280.66 330.499C280.749 339.456 277.822 348.619 272.941 356.537ZM301.092 311.517C294.004 311.517 288.256 305.766 288.256 298.675C288.256 291.584 294.004 285.833 301.092 285.833C308.18 285.833 313.929 291.584 313.929 298.675C313.929 305.766 308.18 311.517 301.092 311.517Z" fill="#E8E9F3"/>
<path d="M287.253 129.304C288.427 124.764 289.188 120.341 290.705 116.196C296.347 100.763 307.649 90.4538 321.837 83.0439C330.937 78.2909 340.723 75.4273 350.856 73.7977C352.231 73.5793 353.624 73.5025 355.436 73.3136C358.593 97.226 358.977 120.329 342.44 140.274C347.557 141.307 352.668 141.916 357.489 143.445C362.317 144.98 366.844 147.436 371.648 149.556C364.211 164.08 353.96 173.51 337.654 174.56C336.762 174.62 335.523 174.36 334.974 173.763C328.665 166.897 321.064 162.197 311.692 159.841C315.404 137.918 325.573 118.871 336.361 100.042C318.998 114.679 305.46 131.831 300.644 154.74C295.273 153.954 290.044 152.974 284.768 152.478C277.237 151.77 269.843 152.526 262.802 155.602C262.123 155.897 261.114 155.974 260.453 155.69C247.003 149.981 235.884 131.329 237.359 116.368C270.982 114.514 287.253 129.304 287.253 129.304ZM252.078 129.192C255.177 131.53 257.685 133.419 260.193 135.315C265.458 139.294 270.946 143.026 275.892 147.371C278.27 149.461 280.365 149.78 283.116 149.266C279.769 137.842 265.233 128.188 252.078 129.186V129.192ZM351.812 155.383C342.8 152 334.661 152.715 326.11 156.387C335.004 159.959 343.142 158.973 351.812 155.383Z" fill="#E8E9F3"/>
</svg>
